<?xml version="1.0" encoding="UTF-8" standalone="no"?>
<!-- Created with Inkscape (http://www.inkscape.org/) -->

<svg
   xmlns:dc="http://purl.org/dc/elements/1.1/"
   xmlns:cc="http://creativecommons.org/ns#"
   xmlns:rdf="http://www.w3.org/1999/02/22-rdf-syntax-ns#"
   xmlns:svg="http://www.w3.org/2000/svg"
   xmlns="http://www.w3.org/2000/svg"
   xmlns:sodipodi="http://sodipodi.sourceforge.net/DTD/sodipodi-0.dtd"
   xmlns:inkscape="http://www.inkscape.org/namespaces/inkscape"
   width="210mm"
   height="297mm"
   id="svg3653"
   version="1.1"
   inkscape:version="0.48.3.1 r9886"
   sodipodi:docname="signos.svg">
  <defs
     id="defs3655" />
  <sodipodi:namedview
     id="base"
     pagecolor="#ffffff"
     bordercolor="#666666"
     borderopacity="1.0"
     inkscape:pageopacity="0.0"
     inkscape:pageshadow="2"
     inkscape:zoom="0.37934112"
     inkscape:cx="631.97423"
     inkscape:cy="887.60203"
     inkscape:document-units="px"
     inkscape:current-layer="layer1"
     showgrid="false"
     inkscape:window-width="1535"
     inkscape:window-height="876"
     inkscape:window-x="65"
     inkscape:window-y="24"
     inkscape:window-maximized="1" />
  <metadata
     id="metadata3658">
    <rdf:RDF>
      <cc:Work
         rdf:about="">
        <dc:format>image/svg+xml</dc:format>
        <dc:type
           rdf:resource="http://purl.org/dc/dcmitype/StillImage" />
        <dc:title />
      </cc:Work>
    </rdf:RDF>
  </metadata>
  <g
     inkscape:label="Camada 1"
     inkscape:groupmode="layer"
     id="layer1">
    <path
       style="fill:#333333;fill-opacity:1"
       d="m 289.17,623.22894 c -0.67888,-2.53324 -0.37058,-4.43814 1.18841,-7.34296 6.11214,-11.38855 6.52063,-13.08673 3.97619,-16.52953 -2.4369,-3.29732 -6.11653,-3.55243 -11.5409,-0.80004 l -3.80798,1.93218 -0.16412,9.06642 -0.16411,9.06641 -1.47082,0 -1.47081,0 0,-19.91638 0,-19.91639 -1.78356,0 c -1.50611,0 -1.78355,-0.23121 -1.78355,-1.4863 0,-1.46881 0.0594,-1.48629 5.05341,-1.48629 4.99396,0 5.05341,0.0172 5.05341,1.48629 0,1.25509 -0.27744,1.4863 -1.78356,1.4863 l -1.78355,0 0,8.91779 c 0,5.77658 0.21775,8.91778 0.6182,8.91778 0.34001,0 1.71182,-0.55796 3.04846,-1.23987 3.45008,-1.76007 8.0871,-2.13551 10.75284,-0.87049 2.6468,1.25598 5.2025,4.85531 5.61122,7.90264 0.34773,2.59252 -0.94752,6.11148 -4.69962,12.76818 -2.30339,4.08649 -2.72355,6.2003 -1.63625,8.23195 0.54312,1.01485 0.41155,1.14998 -1.1197,1.14998 -1.29684,0 -1.82569,-0.33792 -2.09361,-1.33767 z"
       id="path3810"
       inkscape:connector-curvature="0" />
    <g
       id="g6822"
       transform="matrix(0.59451894,0,0,0.59451894,-2.2805303,424.90705)">
      <path
         id="path3808"
         d="m 483.5625,349.40625 -2.4375,5.8125 c -2.23144,5.29152 -2.31171,5.95786 -0.84375,7.03125 1.21671,0.88972 1.54585,2.48174 1.3125,6.5 l -0.3125,5.34375 -5.0625,1.875 c -6.0603,2.2548 -10.55716,6.42092 -13.5,12.5 -3.22176,6.65528 -2.50181,16.70937 1.59375,22.5 3.55466,5.02585 6.73792,7.52059 12.03125,9.40625 11.14783,3.97123 23.60808,-1.30851 29.0625,-12.28125 2.66612,-5.36347 2.45211,-15.41787 -0.4375,-20.9375 -2.62002,-5.00468 -10.08706,-10.9885 -14.8125,-11.875 l -3.375,-0.65625 0,-6.28125 c 0,-4.14769 0.42775,-6.46639 1.25,-6.75 0.89817,-0.30979 0.42264,-2.08916 -1.625,-6.3125 l -2.84375,-5.875 z m -0.3125,30.5 c 4.46342,-0.0582 9.11249,1.15617 12.0625,3.40625 6.26319,4.77717 9.08265,14.10779 6.40625,21.21875 -1.58261,4.20485 -7.89564,10.22956 -11.90625,11.34375 -14.59693,4.05519 -26.45395,-7.25385 -23.59375,-22.5 0.86354,-4.60311 6.59617,-11.03691 11.21875,-12.5625 1.76962,-0.58402 3.78367,-0.87981 5.8125,-0.90625 z"
         style="fill:#333333;fill-opacity:1"
         inkscape:connector-curvature="0" />
      <path
         inkscape:connector-curvature="0"
         id="path3804"
         d="m 481.34255,401.28697 c -3.36653,-3.36653 -0.73018,-8.1872 3.84893,-7.03791 3.25224,0.81625 4.26952,4.18955 2.01479,6.681 -2.11683,2.33907 -3.78031,2.44032 -5.86372,0.35691 z"
         style="fill:#333333;fill-opacity:1" />
    </g>
    <path
       style="fill:#333333;fill-opacity:1"
       d="m 292.03153,564.47709 0,-3.26985 -11.13929,0 -11.1393,0 3.06176,-2.06191 c 7.90837,-5.32582 13.28252,-13.49885 13.25859,-20.16382 -0.0247,-6.89286 -3.18172,-11.06733 -8.3697,-11.06733 -2.36436,0 -3.24303,0.32597 -4.97324,1.84515 -1.15582,1.01484 -2.1015,2.34306 -2.1015,2.95167 0,0.94754 -1.56754,2.33741 -2.63625,2.33741 -0.18499,0 -0.33635,-0.89327 -0.33635,-1.9851 0,-2.4389 2.4856,-5.85548 5.22222,-7.1781 2.94992,-1.42578 7.84905,-1.23125 10.28184,0.40819 5.4868,3.69755 7.41639,11.74276 4.62546,19.28542 -1.38274,3.73697 -2.46626,5.50465 -6.02646,9.83186 l -2.3234,2.82397 6.29781,0 6.29781,0 0,-16.64653 0,-16.64653 1.4863,0 1.48629,0 0,16.61936 0,16.61936 4.01301,0.1758 c 3.6463,0.15974 4.03036,0.29803 4.20298,1.51346 0.18164,1.27899 0.005,1.33767 -4.013,1.33767 l -4.20299,0 0,3.26985 c 0,3.0915 -0.0811,3.26986 -1.48629,3.26986 -1.40523,0 -1.4863,-0.17836 -1.4863,-3.26986 z"
       id="path3802"
       inkscape:connector-curvature="0" />
    <path
       style="fill:#333333;fill-opacity:1"
       d="m 306.58571,474.24803 c -0.40711,0.044 -2.09788,0.66122 -7.61727,2.7868 -1.62613,0.62627 -1.67578,0.73947 -0.74315,1.67209 0.93263,0.93262 0.78347,1.20865 -2.34092,4.36603 l -3.34417,3.38132 -2.74965,-1.43059 c -12.54947,-6.46052 -26.60856,2.44145 -25.50858,16.14494 0.53433,6.65659 4.94855,12.69327 10.75708,14.7515 3.96618,1.40538 9.67802,1.21573 13.24662,-0.44589 9.07214,-4.2243 12.69316,-14.64907 8.15606,-23.44634 l -1.83929,-3.54857 3.36275,-3.32556 c 3.08208,-3.04994 3.45897,-3.24797 4.32884,-2.37807 0.86986,0.86984 1.09485,0.55581 2.73107,-3.71575 0.98246,-2.56487 1.7355,-4.7379 1.67208,-4.81191 -0.0128,-0.0149 -0.0533,-0.006 -0.11147,0 z m -25.88015,11.42594 c 3.0459,-0.14471 6.25038,0.74166 9.19646,2.99114 8.45344,6.45469 6.8687,19.70491 -2.8797,24.15233 -2.81398,1.28381 -8.67159,1.42512 -11.29586,0.27871 -3.01779,-1.31834 -5.74773,-4.03434 -7.20854,-7.17138 -4.69836,-10.0897 3.04995,-19.8168 12.18764,-20.2508 z"
       id="path3800"
       inkscape:connector-curvature="0" />
    <path
       style="fill:#333333;fill-opacity:1"
       d="m 284.41177,725.44446 c -0.0425,-0.0817 -0.14763,-0.95123 -0.23356,-1.93219 -0.0859,-0.98096 -0.1849,-1.98421 -0.21994,-2.22944 -0.035,-0.24524 -1.93643,-0.44589 -4.22533,-0.44589 -4.04273,0 -4.16163,-0.0422 -4.16163,-1.4863 0,-1.44379 0.1189,-1.4863 4.16163,-1.4863 3.60479,0 4.16164,-0.14256 4.16164,-1.06573 0,-0.75611 -0.75518,-1.2677 -2.59956,-1.76097 -3.7074,-0.9916 -7.5208,-4.12108 -9.50627,-7.80145 -1.46535,-2.7163 -1.74562,-4.01408 -2.01757,-9.34257 -0.23771,-4.65776 -0.51525,-6.18811 -1.12222,-6.18811 -1.04475,0 -1.08272,0.17443 0.9208,-4.22947 l 1.7272,-3.79654 1.80121,3.86438 c 1.72495,3.70076 1.75251,3.88244 0.65088,4.29111 -0.98452,0.36522 -1.14829,1.00795 -1.13615,4.4589 0.0276,7.86608 2.26138,12.45606 7.27324,14.94549 4.55735,2.26369 4.60295,2.17291 4.60295,-9.16677 0,-9.38389 -0.0601,-9.89963 -1.18903,-10.19481 -0.65397,-0.17104 -1.18904,-0.38947 -1.18904,-0.48548 0,-0.096 0.79223,-1.84973 1.76051,-3.89714 l 1.76052,-3.72264 1.81006,3.81789 c 1.47519,3.11153 1.64443,3.85343 0.91482,4.01009 -0.75571,0.16224 -0.89524,1.80704 -0.89524,10.55271 0,11.85072 -0.0541,11.75524 4.88492,8.62302 4.30613,-2.73086 5.92323,-6.05458 6.28189,-12.91164 0.2828,-5.40656 0.24262,-5.64615 -1.00151,-5.97153 -0.71288,-0.18644 -1.21831,-0.5249 -1.1232,-0.75219 1.53664,-3.67198 3.20942,-7.14445 3.4428,-7.14683 0.16349,0 1.01401,1.66584 1.89006,3.70558 1.27571,2.97034 1.42365,3.7469 0.74314,3.90088 -0.46731,0.1057 -0.86704,0.37324 -0.88829,0.59452 -0.0213,0.22122 -0.16399,2.94381 -0.31718,6.05018 -0.22703,4.60324 -0.57841,6.24803 -1.89972,8.89228 -1.85148,3.70516 -5.42203,6.75022 -9.21353,7.85746 -2.54403,0.74297 -3.55049,1.54057 -3.02233,2.39513 0.16122,0.26088 2.30244,0.47425 4.75828,0.47425 4.29047,0 4.45772,0.0523 4.27517,1.33767 -0.17433,1.2275 -0.54504,1.35205 -4.50024,1.5124 l -4.31026,0.17467 0,2.35203 c 0,2.11245 -0.15137,2.35198 -1.4863,2.35198 -0.81746,0 -1.52109,-0.0669 -1.56362,-0.14863 z"
       id="path3796"
       inkscape:connector-curvature="0" />
    <path
       style="fill:#333333;fill-opacity:1"
       d="m 276.78826,270.36358 c -0.48577,0.0361 -1.0139,0.70419 -1.63493,2.0065 -0.76278,1.59958 -0.83035,2.38574 -0.33441,3.47422 0.517,1.1347 0.40977,1.76877 -0.57594,3.32559 -4.51053,7.12389 -0.17907,17.84434 7.85879,19.45192 1.70507,0.34101 1.78356,0.52024 1.78356,3.26985 l 0,2.89828 -4.49605,0 c -4.32685,0 -4.49292,0.0515 -4.31026,1.33767 0.17433,1.22747 0.54085,1.34458 4.49605,1.50487 l 4.31026,0.16721 0,2.26661 c 0,1.23912 0.16721,2.39666 0.353,2.58244 0.18578,0.1858 0.78773,0.28338 1.33766,0.20436 0.71772,-0.10312 1.03923,-0.84437 1.17046,-2.6196 l 0.18579,-2.47097 4.42173,0 c 4.32335,0 4.42174,-0.0341 4.42174,-1.48629 0,-1.45325 -0.0991,-1.4863 -4.45889,-1.4863 l -4.45889,0 0,-2.86112 0,-2.84255 2.54528,-0.68741 c 3.5806,-0.95767 7.34698,-4.88323 8.50905,-8.88063 1.06301,-3.65663 0.71008,-6.59087 -1.24477,-10.01392 -1.01537,-1.77797 -1.23309,-2.67976 -0.79889,-3.45565 0.7246,-1.29476 0.1442,-4.2189 -1.04041,-5.20204 -1.3073,-1.08496 -3.14828,0.77221 -2.06223,2.08082 1.29472,1.56004 0.15926,2.22113 -1.91361,1.11472 -2.52537,-1.34793 -8.4175,-1.34793 -10.94286,0 -1.94475,1.03802 -3.37774,0.40514 -2.06224,-0.91035 0.427,-0.427 0.45161,-0.98812 0.0557,-1.72782 -0.37915,-0.70846 -0.7369,-1.06853 -1.11472,-1.04041 z m 8.50905,5.53646 c 4.78744,-0.0823 9.27637,3.26527 10.18114,8.62052 0.54856,3.24691 -1.5202,7.93387 -4.25453,9.62377 -7.41384,4.58202 -15.99181,0.0624 -15.8848,-8.379 0.0444,-3.5005 1.50014,-6.17919 4.40316,-8.10032 1.768,-1.17001 3.68169,-1.73279 5.55503,-1.76497 z"
       id="path3742"
       inkscape:connector-curvature="0" />
    <path
       style="fill:#333333;fill-opacity:1"
       d="m 286.55988,320.95507 c -4.58847,-0.12149 -9.73028,1.86301 -12.20622,5.10915 -5.99571,7.86079 -2.16833,19.62154 7.2457,22.2573 l 2.67533,0.76173 -0.16721,3.02833 -0.18578,3.04691 -4.94194,0.16721 c -4.71555,0.16531 -4.93431,0.23368 -4.75615,1.48629 0.17479,1.22889 0.49051,1.31493 4.94194,1.31909 l 4.75615,0 0.18578,2.82397 c 0.15004,2.33433 0.38012,2.82396 1.33767,2.82396 0.9384,0 1.16309,-0.42039 1.17046,-2.22944 0.005,-1.2262 0.20566,-2.49698 0.44589,-2.82397 0.24023,-0.32698 2.43381,-0.59452 4.8862,-0.59452 4.1714,0 4.48553,-0.0862 4.66326,-1.33767 0.18227,-1.28338 0.005,-1.33766 -4.19879,-1.33766 -4.88961,0 -5.81023,-0.52694 -5.79656,-3.25128 0.0124,-2.46235 0.40512,-2.92943 3.8458,-4.44031 1.63492,-0.71794 3.7341,-2.0166 4.66325,-2.89828 7.29722,-6.92436 5.01678,-19.16632 -4.29168,-23.05619 -1.28677,-0.53772 -2.74362,-0.81412 -4.2731,-0.85462 z m -1.4863,2.84254 c 3.565,-0.0513 7.21825,1.53266 9.45656,4.70042 4.02205,5.69219 1.84282,13.39226 -4.6261,16.33069 -6.20772,2.81978 -13.27021,-0.55904 -15.29028,-7.30143 -0.89114,-2.97438 -0.007,-6.78471 2.22945,-9.71667 2.01153,-2.63725 5.08478,-3.96774 8.23037,-4.01301 z"
       id="path3738"
       inkscape:connector-curvature="0" />
    <path
       style="fill:#333333;fill-opacity:1"
       d="m 285.84824,371.84885 c -3.01448,-0.0224 -6.09532,0.46606 -8.65769,1.46771 -8.89036,3.47534 -14.7625,14.00337 -13.02368,23.35345 1.60623,8.63702 7.4528,15.24961 15.49465,17.51973 10.46761,2.9549 22.49111,-3.26564 26.08452,-13.50673 3.85355,-10.98247 -0.979,-22.26613 -11.70459,-27.25497 -2.22984,-1.03718 -5.17874,-1.55685 -8.19321,-1.57919 z m -1.95077,2.60102 0,8.67626 0,8.65768 -8.60195,0 -8.60194,0 0.37157,-1.93219 c 1.44325,-7.38794 7.53957,-13.52924 14.90013,-15.0116 l 1.93219,-0.39015 z m 2.9726,0 1.93218,0.39015 c 7.24807,1.4597 13.73076,7.82497 15.03018,14.7515 l 0.40874,2.19229 -8.67627,0 -8.69483,0 0,-8.65768 0,-8.67626 z m -2.9726,20.28795 0,8.63911 c 0,9.50036 0.20347,9.0727 -3.97584,7.7659 -6.62998,-2.07307 -12.03339,-8.16703 -12.76358,-14.37993 l -0.20437,-1.70924 8.4719,-0.14863 8.47189,-0.16721 z m 14.90013,0.0929 c 6.37066,-0.0943 5.9198,0.33009 4.27311,4.94194 -1.31846,3.69252 -5.43266,8.32144 -9.02926,10.14398 -1.52467,0.77261 -3.78033,1.59234 -4.99767,1.82071 l -2.21087,0.40873 0.16721,-8.54621 0.1672,-8.54621 8.4719,-0.14863 c 1.20507,-0.0235 2.24829,-0.0608 3.15838,-0.0743 z"
       id="path3734"
       inkscape:connector-curvature="0" />
    <path
       style="fill:#333333;fill-opacity:1"
       d="m 292.01698,423.00518 c -7.52582,0.2186 -14.79075,4.16926 -18.2443,10.34834 -3.29485,5.89513 -4.03853,11.23915 -2.3595,16.90664 2.33305,7.87509 8.14446,13.62415 15.53181,15.36461 3.36397,0.79255 7.8194,0.71532 11.14723,-0.18579 2.40764,-0.65195 2.74661,-0.89659 1.78355,-1.26335 -6.86762,-2.61529 -10.47212,-5.58063 -13.11657,-10.81283 -1.53968,-3.04633 -1.72782,-4.05289 -1.72782,-8.78773 0,-4.74565 0.18912,-5.74282 1.7464,-8.82489 2.10974,-4.17545 6.44439,-8.24512 10.29261,-9.66093 4.11479,-1.5139 4.12632,-1.77548 0.14863,-2.6196 -1.72062,-0.36515 -3.46532,-0.51492 -5.20204,-0.46447 z m -0.46447,2.67533 -3.1398,3.34417 c -4.0164,4.27077 -6.15015,8.86061 -6.52113,14.04551 -0.48806,6.82123 2.12754,13.24887 7.2457,17.74272 1.16363,1.02168 2.11797,2.0002 2.11797,2.17368 0,0.50986 -1.9049,0.28287 -4.45889,-0.52021 -8.29198,-2.6072 -14.04019,-11.05568 -13.17231,-19.35903 0.91171,-8.72278 7.15826,-15.55958 15.55038,-17.0181 l 2.37808,-0.40874 z"
       id="path3724"
       inkscape:connector-curvature="0" />
    <g
       id="g6761"
       transform="matrix(0.59451894,0,0,0.59451894,179.01335,163.9758)">
      <path
         inkscape:connector-curvature="0"
         id="path3720"
         d="m 178.96655,94.537518 c -16.62861,-0.05309 -30.20438,10.760772 -34.46875,27.406252 -4.65845,18.18368 7.58075,38.0792 26.34375,42.8125 2.07104,0.52249 6.82776,0.7554 10.5625,0.53125 12.95249,-0.77734 23.99432,-8.30269 29.9375,-20.375 2.89771,-5.88609 3.25,-7.50871 3.25,-15.125 0,-7.63266 -0.34993,-9.26439 -3.28125,-15.21875 -6.37016,-12.93962 -17.74836,-19.984652 -32.34375,-20.031252 z m -0.0937,4.71875 c 21.16179,-0.549 37.60721,22.074712 28.40625,42.875002 -2.86372,6.47393 -9.33569,13.03132 -15.4375,15.65625 -18.29009,7.86819 -37.62066,-1.81066 -42.375,-21.25 -1.52353,-6.22953 -1.51593,-7.26491 -0.0312,-13.28125 2.97755,-12.06587 10.79558,-20.00792 22.71875,-23.0625 2.26678,-0.580722 4.5296,-0.880712 6.71875,-0.937502 z"
         style="fill:#333333;fill-opacity:1" />
      <path
         inkscape:connector-curvature="0"
         id="path3674"
         d="m 175.09622,138.1008 c -6.40012,-2.68763 -6.21279,-12.67052 0.29601,-15.77435 3.15006,-1.50216 3.66215,-1.49789 6.92435,0.0577 5.59578,2.66844 7.08925,8.74723 3.22728,13.13586 -2.50676,2.84861 -7.10498,3.98445 -10.44764,2.58075 z"
         style="fill:#333333;fill-opacity:1" />
    </g>
    <path
       style="fill:#333333;fill-opacity:1"
       d="m 634.30622,647.91964 -0.1365,-1.88892 -4.64935,-0.25098 c -5.31787,-0.28706 -7.55895,-1.16597 -9.16227,-3.59323 -2.07187,-3.13659 -2.07652,-3.18485 -2.36167,-24.49466 -0.16997,-12.70334 -0.45173,-20.86847 -0.74871,-21.69694 -0.90395,-2.52185 -1.10794,-2.87817 -1.64769,-2.87817 -1.08077,0 -4.41064,5.31261 -6.35245,10.13496 l -1.17881,2.92749 -0.14881,15.38712 -0.14882,15.38711 -1.96643,0 -1.96643,0 -0.009,-17.60109 c -0.005,-9.6806 -0.20489,-18.95755 -0.4446,-20.61546 -0.4451,-3.0784 -1.4448,-5.62013 -2.21047,-5.62013 -0.64745,0 -3.32022,3.85493 -4.87363,7.02919 -3.045,6.22229 -3.13881,6.93103 -2.99655,22.63789 l 0.12834,14.17018 -1.85266,-3.1e-4 -1.85267,-2.7e-4 -0.16336,-19.37227 c -0.17461,-20.70636 -0.29069,-21.85289 -2.59405,-25.62364 -0.46386,-0.75935 -0.84337,-1.50657 -0.84337,-1.66048 0,-0.15392 0.88219,-0.27985 1.96042,-0.27985 1.93088,0 1.9769,0.035 3.05406,2.32467 0.6015,1.27857 1.34696,3.22133 1.65658,4.31725 0.30962,1.09592 0.71298,2.16624 0.89636,2.37852 0.18338,0.21223 0.87399,-0.68443 1.5347,-1.99258 1.3202,-2.61395 3.65437,-6.19691 4.33645,-6.65649 0.23903,-0.16104 1.34113,-0.42871 2.44913,-0.59489 1.70581,-0.25581 2.12557,-0.16499 2.73897,0.59255 0.67027,0.82771 2.22309,5.30463 2.8285,8.15477 0.34441,1.62147 0.92896,1.53827 1.54168,-0.21936 0.57619,-1.65287 3.82847,-7.15676 4.61439,-7.809 0.2906,-0.24119 1.51968,-0.56801 2.73127,-0.72631 2.1585,-0.28197 2.21841,-0.25802 2.97213,1.18921 2.33296,4.47962 2.29396,4.07637 2.54127,26.27354 l 0.23186,20.81135 1.0312,1.44577 c 1.59509,2.23634 3.32132,2.9278 7.38191,2.95685 l 3.54235,0.0252 0.2214,-1.87625 0.2214,-1.87621 3.09956,2.81537 3.09956,2.81538 -2.39454,2.1604 c -3.98116,3.59195 -3.95263,3.58225 -4.11088,1.39259 z"
       id="path4148"
       inkscape:connector-curvature="0" />
    <path
       style="fill:#333333;fill-opacity:1"
       d="m 588.92631,718.62742 -1.53546,-1.59751 7.63821,-7.40774 c 4.20101,-4.07424 7.63821,-7.69063 7.63821,-8.03641 0,-0.34578 -2.29539,-2.93006 -5.10086,-5.74287 l -5.10086,-5.11419 1.5671,-1.51888 1.5671,-1.51892 5.20089,5.18735 c 2.86049,2.85305 5.33541,5.18734 5.49982,5.18734 0.39953,0 22.93449,-22.69155 22.93449,-23.09388 0,-0.41977 -1.05502,-0.69487 -3.98515,-1.03906 -3.98282,-0.46781 -11.65634,-1.54721 -12.76632,-1.79575 -0.94579,-0.21175 -1.00647,-0.38727 -0.7243,-2.09553 0.16937,-1.02542 0.35786,-1.92049 0.41888,-1.98903 0.061,-0.0685 2.27989,0.16853 4.93085,0.52679 14.72147,1.98961 18.58343,2.63308 19.01826,3.16877 0.25943,0.31961 0.82618,3.23356 1.25945,6.47539 0.43326,3.24183 1.15165,8.38498 1.5964,11.4292 0.44474,3.04421 0.67502,5.66693 0.51172,5.82824 -0.1633,0.16131 -1.08671,0.36056 -2.05203,0.44279 l -1.75513,0.14949 -1.30574,-8.7452 c -0.78303,-5.24437 -1.49978,-8.74519 -1.79048,-8.74519 -0.6001,0 -22.83938,22.20142 -22.83938,22.80047 0,0.23814 2.33431,2.77336 5.18734,5.63386 l 5.18734,5.20089 -1.51902,1.56723 -1.51902,1.56722 -5.44051,-5.42746 -5.44052,-5.42743 -7.87291,7.86377 -7.8729,7.86381 -1.53547,-1.59756 z"
       id="path4146"
       inkscape:connector-curvature="0" />
    <path
       style="fill:#333333;fill-opacity:1"
       d="m 612.40619,738.84289 c -0.27927,0 -1.66603,0.24349 -3.07189,0.52582 -2.27813,0.45749 -2.71356,0.7194 -3.99899,2.49072 -1.87951,2.5899 -4.38101,7.64046 -5.31354,10.71009 -2.0219,6.65552 -2.55388,7.3171 -3.1134,3.87446 -0.94126,-5.79149 -2.82274,-11.99571 -4.27574,-14.11408 -1.03443,-1.50816 -3.78667,-2.60142 -6.57273,-2.60142 l -2.21397,0 0,1.49443 c 0,1.39803 0.1237,1.52157 1.77118,1.78499 2.40974,0.38537 4.63538,2.44578 5.68714,5.27205 1.39069,3.73705 3.08458,12.07395 3.68073,18.12691 l 0.5535,5.64563 1.61896,0 1.63281,0 0.30442,-3.41784 c 0.78496,-8.66231 3.81599,-17.41972 8.35775,-24.13231 0.77846,-1.15052 1.65608,-2.09699 1.95107,-2.10328 1.00071,-0.0212 2.14815,5.01779 3.86061,17.03378 0.38179,2.67891 0.80921,6.06629 0.95478,7.52751 0.29261,2.93719 1.28071,6.46707 2.297,8.2332 0.61224,1.06399 0.5479,1.43806 -0.78873,5.09214 -3.41042,9.32353 -5.26173,11.21125 -11.40197,11.60954 l -3.21026,0.20754 0,1.54978 0,1.56364 4.44179,-0.26293 c 7.1187,-0.43367 8.6157,-1.60314 12.2322,-9.46474 1.15849,-2.51835 2.33652,-4.58013 2.61526,-4.58013 0.27875,0 0.86188,0.40068 1.30071,0.88559 2.57851,2.84921 8.45178,4.46505 12.8964,3.54236 2.20788,-0.45834 2.8989,-0.87864 5.0783,-3.05808 2.18573,-2.18572 2.59437,-2.87245 3.05805,-5.10595 0.77805,-3.74786 0.27176,-6.91818 -1.4806,-9.21567 -2.71727,-3.56259 -6.15052,-5.05366 -10.58556,-4.59399 -4.11353,0.42632 -6.78968,2.28535 -10.35033,7.16774 l -0.95477,1.30071 -0.45663,-1.16234 c -0.25269,-0.64515 -0.98942,-5.02882 -1.63281,-9.74148 -1.77134,-12.97456 -3.77807,-22.08439 -4.87074,-22.08439 z m 19.63518,27.07964 c 4.2111,-0.0283 8.03949,3.10364 8.03949,8.34394 0,3.69459 -2.0232,6.76258 -5.4104,8.17784 -2.56752,1.0728 -6.06549,0.68075 -8.70368,-0.98243 -2.62431,-1.65446 -4.92609,-3.79927 -4.92609,-4.59399 0,-1.18824 2.05177,-5.13983 3.76375,-7.25077 2.04505,-2.52163 4.71027,-3.67767 7.23693,-3.69459 z"
       id="path4144"
       inkscape:connector-curvature="0" />
    <path
       style="fill:#333333;fill-opacity:1"
       d="m 594.12452,920.75129 c 1.5e-4,-0.0661 0.96343,-1.36129 2.14062,-2.87817 4.83933,-6.23579 7.54805,-13.0264 7.58537,-19.01617 l 0.0158,-2.53155 -4.98144,-0.12522 -4.98144,-0.12518 -0.13875,-1.43908 -0.13876,-1.43908 5.1202,0 5.12019,0 0,-1.59659 c 0,-4.40196 -3.63104,-13.01498 -7.49472,-17.77794 -1.23572,-1.52335 -2.24676,-2.86834 -2.24676,-2.98887 0,-0.12053 0.88051,-0.21914 1.9567,-0.21914 1.85159,0 2.06571,0.13674 3.986,2.54607 3.75253,4.70811 7.08451,12.27095 7.72763,17.5399 l 0.2777,2.27517 5.35099,0.12371 5.35099,0.12377 0.55699,-3.11675 c 1.07251,-6.00142 3.81489,-12.09733 7.50768,-16.68849 1.95209,-2.427 2.20398,-2.59017 4.1959,-2.71827 l 2.11915,-0.13625 -2.22046,2.89703 c -4.28928,5.59626 -7.3662,12.47158 -7.65576,17.10671 l -0.15046,2.40854 5.09043,0.2214 5.09044,0.22139 0.002,1.32839 0.002,1.32838 -5.09214,0.2214 -5.09214,0.2214 0.12065,3.09956 c 0.21687,5.57204 3.24549,13.01436 7.35502,18.07377 2.65017,3.26274 2.63906,3.18675 0.45717,3.12746 -2.3252,-0.0632 -2.83869,-0.44766 -5.15717,-3.86179 -3.63973,-5.35954 -6.98235,-14.44281 -6.98235,-18.97353 l 0,-1.68687 -5.2864,0 -5.28641,0 -0.24862,2.10327 c -0.76507,6.47229 -3.68235,13.96898 -7.53922,19.37391 -1.94087,2.71987 -2.04663,2.79377 -4.21362,2.94388 -1.22253,0.0847 -2.22266,0.0999 -2.22251,0.0336 z"
       id="path4138"
       inkscape:connector-curvature="0" />
    <g
       id="g6751"
       transform="matrix(0.44279476,0,0,0.44279476,776.6677,575.67533)">
      <path
         inkscape:connector-curvature="0"
         id="path4140"
         d="m -436.86487,-16.246852 0.2999,-5.75 68.25,-0.25694 68.25,-0.25694 0,6.00694 0,6.00694 -68.5499,0 -68.5499,0 0.2999,-5.75 z"
         style="fill:#333333;fill-opacity:1" />
      <path
         inkscape:connector-curvature="0"
         id="path4134"
         d="m -436.38205,-49.147272 c -0.3756,-0.3756 -0.68292,-3.08291 -0.68292,-6.01625 l 0,-5.33333 19,0 c 10.45,0 19,-0.22396 19,-0.49769 0,-0.27372 -1.50108,-2.63622 -3.33574,-5.25 -5.01197,-7.14035 -6.16699,-10.85611 -6.13987,-19.75231 0.0209,-6.86898 0.47237,-8.95299 3.19313,-14.740748 14.79756,-31.47821 59.35338,-31.43878 74.12208,0.0656 2.29727,4.900528 2.65974,6.971838 2.65559,15.175148 -0.004,8.35466 -0.32636,10.11038 -2.67198,14.56281 -1.46695,2.78455 -3.37729,5.65215 -4.2452,6.37245 -0.8679,0.7203 -1.57801,1.92953 -1.57801,2.68718 0,1.12057 3.46058,1.37756 18.5499,1.37756 l 18.54991,0 -0.29991,5.75 -0.2999,5.75 -26.25,0.2666 -26.25,0.26661 0,-5.6058 c 0,-5.34199 0.21506,-5.81481 4.5697,-10.04703 6.14967,-5.97681 8.71758,-12.01849 8.66518,-20.38719 -0.0507,-8.09458 -1.79508,-12.47038 -7.40862,-18.584328 -6.0198,-6.55641 -12.46999,-9.39256 -21.32626,-9.37713 -8.85005,0.0154 -13.94053,2.23392 -20.44232,8.90906 -6.16948,6.333968 -8.51429,12.782098 -7.81518,21.491498 0.61281,7.63427 2.58108,11.6393 8.92522,18.16111 4.73836,4.87105 4.94107,5.3076 4.64348,10 l -0.3112,4.9066 -26.06708,0.26625 c -14.3369,0.14643 -26.3744,-0.0411 -26.75,-0.41667 z"
         style="fill:#333333;fill-opacity:1" />
    </g>
    <g
       id="g6756"
       transform="matrix(0.44279476,0,0,0.44279476,477.66301,862.72081)">
      <path
         inkscape:connector-curvature="0"
         id="path4136"
         d="m 246.59489,-27.407623 c -1.19169,-1.67358 -2.00512,-3.18073 -1.80763,-3.34922 0.1975,-0.16849 4.8591,-3.3753 10.3591,-7.12623 5.5,-3.75094 13.48418,-9.21217 17.74262,-12.13608 4.25846,-2.9239 8.18738,-5.31619 8.73096,-5.31619 0.54357,0 1.29616,1.22657 1.67242,2.72571 1.29498,5.15965 6.37603,15.27429 7.67296,15.27429 0.71449,0 7.27336,-4.10165 14.57528,-9.11478 7.30191,-5.01313 13.62941,-8.72563 14.06115,-8.25 0.43172,0.47563 2.28188,4.57728 4.11149,9.11478 1.86342,4.62139 3.92082,8.25 4.67768,8.25 0.74315,0 7.33461,-4.05 14.64773,-9 7.31311,-4.95 13.53615,-9 13.82899,-9 0.29283,0 1.51196,2.3625 2.70915,5.25 1.19719,2.8875 2.55427,6.15 3.01572,7.25 3.41855,8.14915 6.05385,14.6963 6.05385,15.04023 0,0.22463 -1.40972,1.1374 -3.1327,2.02839 -3.74907,1.93872 -3.53757,2.18453 -8.01811,-9.31862 -1.76739,-4.5375 -3.74579,-8.25 -4.39645,-8.25 -0.65066,0 -2.25621,0.8235 -3.56788,1.82999 -3.43111,2.63281 -24.82564,17.17001 -25.26926,17.17001 -0.20514,0 -0.92694,-1.4625 -1.60403,-3.25 -3.81172,-10.06288 -6.41646,-15.75 -7.21361,-15.75 -0.4961,0 -7.15297,4.27349 -14.79304,9.49664 -7.64008,5.22315 -14.09299,9.16065 -14.33982,8.75 -0.24682,-0.41065 -1.92897,-4.50455 -3.73813,-9.09755 -1.80915,-4.59301 -3.81331,-8.55198 -4.45369,-8.79771 -0.64039,-0.24574 -6.29902,3.06217 -12.57475,7.35091 -18.57803,12.69595 -16.43048,11.76378 -18.95001,8.22543 z"
         style="fill:#333333;fill-opacity:1" />
      <path
         inkscape:connector-curvature="0"
         id="path4132"
         d="m 247.24741,-80.821463 c -0.88058,-1.34393 -1.59041,-3.02185 -1.57738,-3.7287 0.013,-0.70685 4.17552,-4.06153 9.25,-7.45484 5.07448,-3.39331 13.17695,-8.912507 18.00549,-12.264877 l 8.77916,-6.09521 1.7981,4.26487 c 0.98896,2.34569 2.66333,6.449547 3.72084,9.119697 2.29654,5.79865 3.68684,6.55802 7.24493,3.95712 1.47279,-1.0766 7.7455,-5.42785 13.93934,-9.669447 l 11.26153,-7.71201 1.02108,2.78476 c 2.95069,8.047367 6.48013,15.548707 7.4999,15.940027 0.63451,0.24349 7.37964,-3.83013 14.98916,-9.052477 l 13.83549,-9.49518 1.90422,4.19619 c 1.04732,2.30791 2.78539,6.446197 3.86238,9.196197 1.07699,2.75 2.83713,6.9076 3.91143,9.2391 2.50609,5.43884 2.4803,5.6757 -0.79672,7.3183 -1.51251,0.75813 -3.03346,1.52485 -3.3799,1.70381 -0.34645,0.17897 -2.29388,-3.96909 -4.32763,-9.21791 -2.12447,-5.48295 -4.26896,-9.5433 -5.04033,-9.5433 -0.73843,0 -7.54191,4.25453 -15.11883,9.45451 l -13.77623,9.45451 -3.92934,-9.45451 c -2.34489,-5.64215 -4.50066,-9.45451 -5.34623,-9.45451 -0.77931,0 -3.76019,1.71781 -6.62421,3.81736 -2.86401,2.09956 -8.93223,6.39977 -13.48491,9.55604 l -8.27761,5.73868 -1.47239,-3.52392 c -0.80983,-1.93816 -1.47239,-3.90416 -1.47239,-4.36889 0,-1.79466 -5.05776,-11.21927 -6.02087,-11.21927 -0.55888,0 -7.26234,4.26541 -14.89659,9.47869 l -13.88044,9.47869 -1.60105,-2.4435 z"
         style="fill:#333333;fill-opacity:1" />
    </g>
    <path
       style="fill:#333333;fill-opacity:1"
       d="m 587.01654,225.73812 c -0.10967,0 -0.13094,0.74721 -0.0553,1.66048 l 0.12453,1.66048 3.09957,0.74721 c 1.70476,0.41469 4.19548,0.90168 5.53493,1.06548 4.3969,0.5377 3.98515,-1.83331 3.98515,22.91463 0,16.37621 -0.12692,21.9484 -0.52582,22.3473 -0.29224,0.29224 -1.13909,0.53434 -1.88187,0.53965 -0.74279,0.005 -3.34864,0.46267 -5.78401,1.02396 l -4.42795,1.02397 -0.12453,1.61897 c -0.08,0.94656 0.0561,1.6328 0.33209,1.6328 0.26082,0 2.21655,-0.38531 4.34493,-0.85791 2.12836,-0.47261 6.74985,-1.1967 10.28114,-1.60513 10.48863,-1.21313 25.88563,-0.3905 34.52415,1.84036 1.32974,0.3434 2.67472,0.62268 2.98887,0.62268 0.62186,0 0.83145,-2.89712 0.23523,-3.26561 -0.27954,-0.17277 -5.23767,-1.19949 -11.06987,-2.31084 l -0.99629,-0.19372 0,-22.33346 0,-22.33346 1.66048,-0.27675 c 3.77482,-0.62133 8.80313,-1.66348 9.74149,-2.02025 0.78109,-0.29697 0.99629,-0.72268 0.99629,-1.93722 0,-0.85841 -0.0711,-1.56362 -0.16605,-1.56362 -0.095,0 -2.13735,0.40303 -4.53865,0.89942 -6.30072,1.30248 -12.06337,1.76764 -21.86299,1.77118 -9.51048,0.004 -15.66172,-0.50256 -22.02904,-1.81269 -2.30637,-0.47455 -4.27677,-0.85791 -4.38643,-0.85791 z m 16.89538,6.14377 9.52009,0 9.52009,0 0.12453,21.84916 0.1107,21.84915 -9.75532,0 -9.74148,0 0.11069,-21.84915 0.1107,-21.84916 z"
       id="path4130"
       inkscape:connector-curvature="0" />
    <path
       style="fill:#333333;fill-opacity:1"
       d="m 611.28469,131.11631 c -0.73936,-18.37221 -5.86532,-36.686392 -12.04898,-43.048914 -4.07588,-4.193767 -9.06881,-3.159624 -10.85348,2.247989 -0.8582,2.600339 -0.35177,7.927244 1.04333,10.974555 0.65236,1.42494 1.18611,2.66636 1.18611,2.7587 0,0.0923 -0.87212,0.16789 -1.93805,0.16789 -1.89927,0 -1.95679,-0.0436 -2.87525,-2.17858 -2.13341,-4.959252 -2.37509,-10.977594 -0.58185,-14.489346 1.35509,-2.653727 4.16661,-4.88876 6.92674,-5.506449 9.6365,-2.156553 17.61662,10.219003 20.22336,31.362365 0.67567,5.48041 1.45814,6.02688 1.90205,1.32838 0.47049,-4.9798 2.33125,-13.65883 3.77879,-17.625168 2.97076,-8.140086 7.23915,-13.516805 11.77802,-14.83629 4.18845,-1.217619 7.29078,-0.277238 10.27686,3.115132 3.41451,3.879095 3.7419,10.034226 0.88967,16.726676 -0.87465,2.05228 -0.94338,2.10328 -2.83443,2.10328 -1.06593,0 -1.93805,-0.0756 -1.93805,-0.16789 0,-0.0923 0.48769,-1.23807 1.08375,-2.54607 3.53707,-7.761774 1.29972,-16.326217 -4.26502,-16.326217 -2.31031,0 -3.86775,0.870296 -6.1042,3.411043 -5.83432,6.628133 -10.57063,24.426334 -11.37637,42.750314 l -0.28719,6.53122 -1.85703,0 -1.85703,0 -0.27174,-6.75262 z"
       id="path4126"
       inkscape:connector-curvature="0" />
    <path
       style="fill:#333333;fill-opacity:1"
       d="m 617.90339,363.40172 c -1.4213,0.0128 -2.87594,0.16171 -4.33109,0.47047 -11.58943,2.45902 -15.31696,12.67967 -8.88357,24.35371 0.0825,0.14966 -1.59583,0.24929 -3.73608,0.2214 -3.54512,-0.0462 -4.10934,0.0628 -6.29599,1.27303 -9.07682,5.02354 -7.36,18.19417 2.68445,20.60379 2.87815,0.69046 6.82081,0.33477 9.07729,-0.8164 3.63452,-1.85419 6.358,-5.92038 6.36517,-9.50625 0.004,-1.832 -1.55096,-6.0808 -3.98515,-10.93149 -4.47799,-8.92345 -4.63285,-14.7093 -0.52582,-18.83262 2.91983,-2.93141 4.586,-3.54236 9.60311,-3.54236 4.07482,0 4.61105,0.0991 6.7803,1.30071 4.18003,2.31551 6.28215,6.01534 6.28215,11.06987 0,3.90508 -0.8861,6.48179 -5.4104,15.74689 -4.98233,10.20306 -6.98179,15.68982 -6.98785,19.17855 -0.008,4.76464 2.80941,8.20019 7.52751,9.20183 0.85238,0.18095 2.44644,0.23889 3.54235,0.12453 2.21393,-0.23102 6.95941,-2.35545 8.10868,-3.62538 0.69859,-0.77194 0.68307,-0.87116 -0.30442,-1.79885 l -1.05164,-0.98245 -2.86432,1.56361 c -4.90716,2.69732 -8.78724,1.8725 -10.61324,-2.25548 -0.86888,-1.96423 -0.86965,-2.12012 -0.15221,-4.67702 0.93645,-3.33748 2.73002,-7.46113 7.33379,-16.90923 2.00494,-4.11467 3.91703,-8.49834 4.24806,-9.74148 0.80112,-3.00856 0.76319,-8.41916 -0.0692,-11.22208 -1.86319,-6.27407 -8.66689,-10.33648 -16.34189,-10.2673 z m -17.36586,27.64699 c 2.71931,0.005 3.42158,0.18366 4.93993,1.21769 5.38616,3.6681 5.5391,10.6249 0.31826,14.25246 -3.61896,2.51453 -9.09101,1.90327 -12.13535,-1.35606 -3.50894,-3.75675 -2.68867,-9.62764 1.78502,-12.77186 1.70579,-1.19888 2.26844,-1.34714 5.09214,-1.34223 z"
       id="path4124"
       inkscape:connector-curvature="0" />
    <path
       style="fill:#333333;fill-opacity:1"
       d="m 620.83189,441.99515 c -0.21395,-0.008 -0.4668,0.0352 -0.78873,0.0969 -3.37595,0.64675 -4.81739,2.11369 -7.3753,7.52751 -0.73666,1.55915 -1.49749,2.72781 -1.70199,2.60142 -0.20451,-0.12639 -0.5002,-1.11847 -0.65036,-2.21397 -0.27647,-2.01705 -2.49964,-7.45867 -3.23794,-7.91496 -0.221,-0.13659 -1.35458,-0.0407 -2.51839,0.20756 -2.39912,0.51168 -3.86898,2.14254 -5.97773,6.6696 -0.651,1.39757 -1.36329,2.48093 -1.59129,2.40769 -0.22802,-0.0732 -0.73325,-1.20789 -1.12083,-2.53223 -0.38758,-1.32433 -1.09656,-3.20472 -1.57745,-4.17887 -0.81627,-1.6535 -1.01247,-1.78356 -2.97503,-1.90956 -2.27161,-0.14583 -2.48025,0.0712 -1.42525,1.57746 0.37775,0.53932 1.11308,2.12624 1.63281,3.52852 0.90001,2.42834 0.95354,3.48127 1.12082,21.93218 l 0.17989,19.37227 1.93722,0 1.93723,0 0.13838,-15.60852 0.12453,-15.60851 2.28316,-4.64935 c 1.26064,-2.55714 2.90688,-5.34674 3.65306,-6.19912 1.29854,-1.48337 1.38504,-1.51696 2.00641,-0.71954 0.62734,0.80506 1.37457,3.71117 1.77118,6.91866 0.1054,0.85238 0.20497,9.27102 0.2214,18.70808 l 0.0277,17.1583 1.88188,0 1.88188,0 -0.13837,-13.39454 c -0.15507,-15.06876 0.005,-16.2503 3.01653,-22.69323 1.76091,-3.76734 4.13333,-7.30612 4.89842,-7.30612 0.72837,0 1.81463,3.05006 2.21398,6.19913 0.20074,1.58299 0.39366,11.14736 0.42895,21.25415 l 0.0692,18.37598 -1.2592,0.77489 c -0.69224,0.43081 -2.90307,1.29059 -4.91225,1.90955 l -3.65306,1.13467 0,1.56361 0,1.57746 1.66048,-0.30442 c 0.91327,-0.16667 3.05528,-0.80211 4.76004,-1.41141 1.70476,-0.60929 3.40034,-1.20926 3.7776,-1.32838 0.48506,-0.15317 1.00368,0.46165 1.77118,2.10327 0.59689,1.27675 1.45185,2.78325 1.89571,3.34864 0.65397,0.83301 1.23361,1.0378 3.04422,1.0378 l 2.22781,0 -1.09315,-1.43908 c -1.43999,-1.89135 -2.80641,-4.64919 -3.18259,-6.39285 -0.27797,-1.28845 -0.063,-1.64336 2.65677,-4.42795 3.49484,-3.57814 6.47965,-8.45442 7.81809,-12.75803 0.75703,-2.43414 0.97362,-4.19274 0.96862,-8.1917 -0.007,-5.63362 -0.63295,-8.39805 -2.96119,-13.17314 -1.25714,-2.57834 -1.4674,-2.80537 -2.50456,-2.55991 -2.1683,0.51316 -3.34228,1.81258 -4.89842,5.46575 -0.84716,1.98878 -1.694,3.62538 -1.88188,3.62538 -0.18786,0 -0.34239,-2.34128 -0.34593,-5.20284 -0.007,-5.87771 -0.75603,-9.8199 -2.49072,-13.00709 -0.80651,-1.48184 -1.10167,-1.92729 -1.7435,-1.95107 z m 10.2673,15.91294 c 0.23297,-0.006 0.40795,0.30486 0.76105,0.99629 0.95783,1.87556 2.0756,7.29878 2.0756,10.05974 0,6.40101 -2.74318,13.47343 -7.01553,18.09923 -0.61855,0.66973 -1.29778,1.21769 -1.50827,1.21769 -0.2105,0 -0.32247,-4.63274 -0.24907,-10.29498 l 0.13838,-10.29498 2.06176,-4.22038 c 1.13369,-2.31584 2.45473,-4.5633 2.94735,-5.00912 0.38306,-0.34667 0.60753,-0.5489 0.78873,-0.55349 z"
       id="path4120"
       inkscape:connector-curvature="0" />
    <path
       style="fill:#333333;fill-opacity:1"
       d="m 636.89181,156.4873 c -0.45232,-0.008 -1.14136,0.1051 -2.15862,0.31826 -1.96073,0.41086 -2.75116,0.89594 -4.64935,2.83666 -1.25749,1.28567 -3.10598,3.83065 -4.10969,5.65946 -1.00371,1.82882 -2.64977,4.26872 -3.66689,5.42424 -2.49327,2.8325 -4.60216,3.73608 -8.75903,3.73608 -5.80677,0 -8.00266,-1.61904 -12.53663,-9.2295 -3.2901,-5.52257 -5.62193,-7.76995 -8.81438,-8.45461 -2.42243,-0.51952 -3.18115,-0.22304 -2.91968,1.13466 0.0969,0.50316 0.70673,0.91758 1.6328,1.10699 2.09339,0.42814 4.44362,2.93577 6.87716,7.30611 2.51991,4.52544 4.25648,6.58841 6.53122,7.7489 0.93632,0.47768 1.702,1.01777 1.702,1.20385 0,0.18608 -0.54796,0.66175 -1.21769,1.06547 -2.3856,1.43807 -5.1413,4.59587 -6.48971,7.43065 -1.21558,2.55555 -1.3699,3.32487 -1.3699,6.86332 0,3.39 0.18793,4.36591 1.19001,6.50355 2.13745,4.55956 6.34113,8.20973 10.95917,9.52009 3.05971,0.86818 8.31933,0.4635 11.23592,-0.87175 6.22596,-2.85034 10.51798,-9.87608 9.92137,-16.2312 -0.48244,-5.13904 -3.58501,-10.37754 -7.63821,-12.88256 -0.84178,-0.52025 -1.53594,-1.1248 -1.53594,-1.34222 0,-0.21742 0.64758,-0.72078 1.43908,-1.12083 2.32876,-1.17703 3.38517,-2.37417 5.99157,-6.8218 3.70292,-6.31877 5.11133,-7.83214 7.74891,-8.37158 1.00489,-0.20552 1.3845,-0.54613 1.43908,-1.28688 0.0637,-0.86411 -0.0487,-1.23126 -0.80257,-1.24536 z m -23.39893,20.88054 c 1.99405,-0.0189 3.96162,0.2941 5.42423,0.95477 5.99268,2.70695 9.28161,9.15672 7.73507,15.1934 -1.12546,4.39311 -4.07113,7.90124 -8.01181,9.54776 -2.27373,0.95003 -6.29627,1.16657 -8.77287,0.47047 -6.04248,-1.69837 -10.59315,-8.16682 -9.8937,-14.07257 0.55511,-4.687 3.81113,-9.20753 7.94263,-11.02836 1.56437,-0.68944 3.58239,-1.04652 5.57645,-1.06547 z"
       id="path4116"
       inkscape:connector-curvature="0" />
    <g
       id="g6826"
       transform="matrix(0.44279476,0,0,0.44279476,569.16192,604.5142)">
      <path
         id="path4112"
         d="m 139.5625,-649.9375 c -19.09298,-0.0612 -31.52319,19.66942 -22.96875,36.4375 1.86956,3.66465 9.16537,10.9375 10.96875,10.9375 0.54842,0 1,0.62248 1,1.375 0,3.8458 -25.32962,7.19234 -42.28125,5.59375 -12.74087,-1.2015 -34.79949,-6.61536 -44.125,-10.84375 l -6.59375,-3 0,4.84375 0,4.84375 7.3125,3.0625 c 8.61608,3.58688 19.08011,6.5442 30.1875,8.53125 21.72147,3.88585 50.97574,0.41066 68.375,-8.125 8.32575,-4.0844 17.34735,-11.83538 20.09375,-17.21875 8.53664,-16.7332 -3.31493,-36.3777 -21.96875,-36.4375 z m -0.0937,5.375 c 15.30619,0 25.1326,17.94927 16.53125,30.1875 -1.66372,2.36717 -4.79163,5.29814 -6.96875,6.53125 -4.7682,2.70071 -13.44273,3.00686 -17.96875,0.625 -7.63443,-4.01767 -11.5,-10.01733 -11.5,-17.84375 0,-5.81654 1.87294,-10.16333 6.125,-14.1875 4.20119,-3.97602 7.66903,-5.3125 13.78125,-5.3125 z"
         style="fill:#333333;fill-opacity:1"
         inkscape:connector-curvature="0" />
      <path
         id="path4108"
         d="m 107.71875,-686.375 c -2.35058,-3.2e-4 -4.73266,0.0634 -7.15625,0.1875 -21.309216,1.09113 -35.34826,4.91248 -48.625,13.1875 -11.24379,7.00795 -16.16415,14.67037 -16.3125,25.5 -0.14263,10.41137 7.04808,20.33552 16.9375,23.40625 5.85357,1.81757 9.63093,1.86615 15.3125,0.15625 13.56135,-4.08137 20.78823,-18.55165 16.46875,-32.96875 -1.20562,-4.02405 -6.89076,-10.69809 -11.78125,-13.84375 l -2.5,-1.625 3,-1.1875 c 19.76523,-7.80588 59.06043,-4.3725 85.90625,7.5 l 5.59375,2.46875 0,-4.84375 0,-4.84375 -7.75,-3.03125 c -17.67566,-6.93956 -32.63971,-10.06029 -49.09375,-10.0625 z m -47.53125,18.78125 c 3.970346,-0.0459 8.020558,1.12073 11.625,3.625 7.92334,5.50493 10.95564,16.19355 6.84375,24.1875 -2.32765,4.52519 -6.62893,8.72908 -10.40625,10.15625 -4.13418,1.562 -12.69636,1.25038 -16.4375,-0.59375 -9.10383,-4.48761 -13.52008,-15.9211 -9.6875,-25.09375 3.228035,-7.72578 10.482749,-12.19367 18.0625,-12.28125 z"
         style="fill:#333333;fill-opacity:1"
         inkscape:connector-curvature="0" />
    </g>
    <text
       xml:space="preserve"
       style="font-size:23.7807579px;font-style:normal;font-weight:normal;line-height:125%;letter-spacing:0px;word-spacing:0px;fill:#000000;fill-opacity:1;stroke:none;font-family:Sans"
       x="124.11004"
       y="253.10234"
       id="text6768"
       sodipodi:linespacing="125%"><tspan
         sodipodi:role="line"
         x="124.11004"
         y="253.10234"
         id="tspan6776">sol</tspan></text>
    <text
       xml:space="preserve"
       style="font-size:23.7807579px;font-style:normal;font-weight:normal;line-height:125%;letter-spacing:0px;word-spacing:0px;fill:#000000;fill-opacity:1;stroke:none;font-family:Sans"
       x="123.23916"
       y="304.84567"
       id="text6780"
       sodipodi:linespacing="125%"><tspan
         sodipodi:role="line"
         id="tspan6782"
         x="123.23916"
         y="304.84567">mercúrio</tspan></text>
    <text
       xml:space="preserve"
       style="font-size:23.7807579px;font-style:normal;font-weight:normal;line-height:125%;letter-spacing:0px;word-spacing:0px;fill:#000000;fill-opacity:1;stroke:none;font-family:Sans"
       x="124.69062"
       y="356.11292"
       id="text6784"
       sodipodi:linespacing="125%"><tspan
         sodipodi:role="line"
         id="tspan6786"
         x="124.69062"
         y="356.11292">vênus</tspan></text>
    <text
       xml:space="preserve"
       style="font-size:23.7807579px;font-style:normal;font-weight:normal;line-height:125%;letter-spacing:0px;word-spacing:0px;fill:#000000;fill-opacity:1;stroke:none;font-family:Sans"
       x="124.76029"
       y="406.21902"
       id="text6788"
       sodipodi:linespacing="125%"><tspan
         sodipodi:role="line"
         id="tspan6790"
         x="124.76029"
         y="406.21902">terra</tspan></text>
    <text
       xml:space="preserve"
       style="font-size:23.7807579px;font-style:normal;font-weight:normal;line-height:125%;letter-spacing:0px;word-spacing:0px;fill:#000000;fill-opacity:1;stroke:none;font-family:Sans"
       x="123.15788"
       y="458.17139"
       id="text6792"
       sodipodi:linespacing="125%"><tspan
         sodipodi:role="line"
         id="tspan6794"
         x="123.15788"
         y="458.17139">lua</tspan></text>
    <text
       xml:space="preserve"
       style="font-size:23.7807579px;font-style:normal;font-weight:normal;line-height:125%;letter-spacing:0px;word-spacing:0px;fill:#000000;fill-opacity:1;stroke:none;font-family:Sans"
       x="123.23916"
       y="508.75357"
       id="text6797"
       sodipodi:linespacing="125%"><tspan
         sodipodi:role="line"
         id="tspan6799"
         x="123.23916"
         y="508.75357">marte</tspan></text>
    <text
       xml:space="preserve"
       style="font-size:23.7807579px;font-style:normal;font-weight:normal;line-height:125%;letter-spacing:0px;word-spacing:0px;fill:#000000;fill-opacity:1;stroke:none;font-family:Sans"
       x="125.82857"
       y="558.87701"
       id="text6801"
       sodipodi:linespacing="125%"><tspan
         sodipodi:role="line"
         id="tspan6803"
         x="125.82857"
         y="558.87701">júpiter</tspan></text>
    <text
       xml:space="preserve"
       style="font-size:23.7807579px;font-style:normal;font-weight:normal;line-height:125%;letter-spacing:0px;word-spacing:0px;fill:#000000;fill-opacity:1;stroke:none;font-family:Sans"
       x="124.11004"
       y="611.28802"
       id="text6805"
       sodipodi:linespacing="125%"><tspan
         sodipodi:role="line"
         id="tspan6807"
         x="124.11004"
         y="611.28802">saturno</tspan></text>
    <text
       xml:space="preserve"
       style="font-size:23.7807579px;font-style:normal;font-weight:normal;line-height:125%;letter-spacing:0px;word-spacing:0px;fill:#000000;fill-opacity:1;stroke:none;font-family:Sans"
       x="123.3785"
       y="660.86584"
       id="text6809"
       sodipodi:linespacing="125%"><tspan
         sodipodi:role="line"
         id="tspan6811"
         x="123.3785"
         y="660.86584">urano</tspan></text>
    <text
       xml:space="preserve"
       style="font-size:23.7807579px;font-style:normal;font-weight:normal;line-height:125%;letter-spacing:0px;word-spacing:0px;fill:#000000;fill-opacity:1;stroke:none;font-family:Sans"
       x="123.23916"
       y="713.82263"
       id="text6813"
       sodipodi:linespacing="125%"><tspan
         sodipodi:role="line"
         id="tspan6815"
         x="123.23916"
         y="713.82263">netuno</tspan></text>
    <text
       xml:space="preserve"
       style="font-size:22px;font-style:normal;font-weight:normal;line-height:125%;letter-spacing:0px;word-spacing:0px;fill:#000000;fill-opacity:1;stroke:none;font-family:Sans"
       x="450.86206"
       y="119.61817"
       id="text6830"
       sodipodi:linespacing="125%"><tspan
         sodipodi:role="line"
         id="tspan6832"
         x="450.86206"
         y="119.61817">Áries</tspan></text>
    <text
       xml:space="preserve"
       style="font-size:22px;font-style:normal;font-weight:normal;line-height:125%;letter-spacing:0px;word-spacing:0px;fill:#000000;fill-opacity:1;stroke:none;font-family:Sans"
       x="451.29175"
       y="187.8945"
       id="text6834"
       sodipodi:linespacing="125%"><tspan
         sodipodi:role="line"
         id="tspan6836"
         x="451.29175"
         y="187.8945">Touro</tspan></text>
    <text
       xml:space="preserve"
       style="font-size:22px;font-style:normal;font-weight:normal;line-height:125%;letter-spacing:0px;word-spacing:0px;fill:#000000;fill-opacity:1;stroke:none;font-family:Sans"
       x="448.92847"
       y="261.55164"
       id="text6838"
       sodipodi:linespacing="125%"><tspan
         sodipodi:role="line"
         id="tspan6840"
         x="448.92847"
         y="261.55164">Gêmeos</tspan></text>
    <text
       xml:space="preserve"
       style="font-size:22px;font-style:normal;font-weight:normal;line-height:125%;letter-spacing:0px;word-spacing:0px;fill:#000000;fill-opacity:1;stroke:none;font-family:Sans"
       x="448.92847"
       y="333.79276"
       id="text6842"
       sodipodi:linespacing="125%"><tspan
         sodipodi:role="line"
         id="tspan6844"
         x="448.92847"
         y="333.79276">Câncer</tspan></text>
    <text
       xml:space="preserve"
       style="font-size:22px;font-style:normal;font-weight:normal;line-height:125%;letter-spacing:0px;word-spacing:0px;fill:#000000;fill-opacity:1;stroke:none;font-family:Sans"
       x="447.24878"
       y="405.57492"
       id="text6846"
       sodipodi:linespacing="125%"><tspan
         sodipodi:role="line"
         id="tspan6848"
         x="447.24878"
         y="405.57492">Leão</tspan></text>
    <text
       xml:space="preserve"
       style="font-size:22px;font-style:normal;font-weight:normal;line-height:125%;letter-spacing:0px;word-spacing:0px;fill:#000000;fill-opacity:1;stroke:none;font-family:Sans"
       x="450.86206"
       y="473.59726"
       id="text6850"
       sodipodi:linespacing="125%"><tspan
         sodipodi:role="line"
         id="tspan6852"
         x="450.86206"
         y="473.59726">Virgem</tspan></text>
    <text
       xml:space="preserve"
       style="font-size:22px;font-style:normal;font-weight:normal;line-height:125%;letter-spacing:0px;word-spacing:0px;fill:#000000;fill-opacity:1;stroke:none;font-family:Sans"
       x="447.24878"
       y="549.71533"
       id="text6854"
       sodipodi:linespacing="125%"><tspan
         sodipodi:role="line"
         id="tspan6856"
         x="447.24878"
         y="549.71533">Libra</tspan></text>
    <text
       xml:space="preserve"
       style="font-size:22px;font-style:normal;font-weight:normal;line-height:125%;letter-spacing:0px;word-spacing:0px;fill:#000000;fill-opacity:1;stroke:none;font-family:Sans"
       x="447.24878"
       y="618.42133"
       id="text6858"
       sodipodi:linespacing="125%"><tspan
         sodipodi:role="line"
         id="tspan6860"
         x="447.24878"
         y="618.42133">Escorpião</tspan></text>
    <text
       xml:space="preserve"
       style="font-size:22px;font-style:normal;font-weight:normal;line-height:125%;letter-spacing:0px;word-spacing:0px;fill:#000000;fill-opacity:1;stroke:none;font-family:Sans"
       x="448.53784"
       y="691.12146"
       id="text6862"
       sodipodi:linespacing="125%"><tspan
         sodipodi:role="line"
         id="tspan6864"
         x="448.53784"
         y="691.12146">Sagitário</tspan></text>
    <text
       xml:space="preserve"
       style="font-size:22px;font-style:normal;font-weight:normal;line-height:125%;letter-spacing:0px;word-spacing:0px;fill:#000000;fill-opacity:1;stroke:none;font-family:Sans"
       x="448.92847"
       y="763.36255"
       id="text6866"
       sodipodi:linespacing="125%"><tspan
         sodipodi:role="line"
         id="tspan6868"
         x="448.92847"
         y="763.36255">Capricórnio</tspan></text>
    <text
       xml:space="preserve"
       style="font-size:22px;font-style:normal;font-weight:normal;line-height:125%;letter-spacing:0px;word-spacing:0px;fill:#000000;fill-opacity:1;stroke:none;font-family:Sans"
       x="450.86206"
       y="835.60364"
       id="text6870"
       sodipodi:linespacing="125%"><tspan
         sodipodi:role="line"
         id="tspan6872"
         x="450.86206"
         y="835.60364">Aquário</tspan></text>
    <text
       xml:space="preserve"
       style="font-size:22px;font-style:normal;font-weight:normal;line-height:125%;letter-spacing:0px;word-spacing:0px;fill:#000000;fill-opacity:1;stroke:none;font-family:Sans"
       x="447.24878"
       y="910.92096"
       id="text6874"
       sodipodi:linespacing="125%"><tspan
         sodipodi:role="line"
         id="tspan6876"
         x="447.24878"
         y="910.92096">Peixes</tspan></text>
  </g>
</svg>
